<svg version="1.2" xmlns="http://www.w3.org/2000/svg" viewBox="0 0 456 456" width="456" height="456">
	<title>linkedin-svgrepo-com-svg</title>
	<style>
		.s0 { fill: #ffffff } 
	</style>
	<g id="Layer">
		<g id="Layer">
			<path id="Layer" class="s0" d="m107.3 69.2c20.8 0 38 17.3 38 38.2-0.1 22-18.3 38.6-38.3 38.1-20.3 0.4-38.2-16.6-38.2-38.2 0-21 17.3-38.1 38.5-38.1z"/>
			<path id="Layer" class="s0" d="m129.4 386.5h-44.7c-5.8 0-10.5-4.7-10.5-10.5v-190.8c0-5.8 4.7-10.5 10.5-10.5h44.7c5.8 0 10.5 4.7 10.5 10.5v190.8c0 5.8-4.7 10.5-10.5 10.5z"/>
			<path id="Layer" class="s0" d="m386.9 241.7c0-40-32.4-72.4-72.4-72.4h-11.5c-21.9 0-41.2 10.9-52.8 27.6q-2 2.7-3.6 5.6c-0.3 0-0.6-0.1-0.6 0v-23.5c0-2.4-1.9-4.3-4.3-4.3h-55.8c-2.4 0-4.4 1.9-4.4 4.3v203.1c0 2.4 2 4.4 4.4 4.4h57c2.4 0 4.3-2 4.3-4.4v-117.3c0-20.3 16.2-37.1 36.5-37.3 10.4-0.2 19.7 4 26.5 10.8 6.7 6.6 10.8 15.8 10.8 26v117.8c0 2.4 2 4.4 4.4 4.4h57.1c2.4 0 4.4-1.9 4.4-4.3 0 0 0-140.5 0-140.5z"/>
		</g>
	</g>
</svg>